<?xml version="1.0" encoding="UTF-8" standalone="no"?>
<svg
   width="864pt"
   height="1728pt"
   viewBox="0 0 864 1728"
   version="1.1"
   id="svg164"
   sodipodi:docname="são joão.svg"
   inkscape:version="1.2 (dc2aedaf03, 2022-05-15)"
   xmlns:inkscape="http://www.inkscape.org/namespaces/inkscape"
   xmlns:sodipodi="http://sodipodi.sourceforge.net/DTD/sodipodi-0.dtd"
   xmlns="http://www.w3.org/2000/svg"
   xmlns:svg="http://www.w3.org/2000/svg">
  <sodipodi:namedview
     id="namedview166"
     pagecolor="#ffffff"
     bordercolor="#999999"
     borderopacity="1"
     inkscape:showpageshadow="0"
     inkscape:pageopacity="0"
     inkscape:pagecheckerboard="0"
     inkscape:deskcolor="#d1d1d1"
     inkscape:document-units="pt"
     showgrid="false"
     inkscape:zoom="0.60644227"
     inkscape:cx="33.803712"
     inkscape:cy="1070.1761"
     inkscape:window-width="1366"
     inkscape:window-height="697"
     inkscape:window-x="-8"
     inkscape:window-y="-8"
     inkscape:window-maximized="1"
     inkscape:current-layer="svg164" />
  <defs
     id="defs150" />
  <path
     id="Path0"
     stroke-width="0"
     stroke="none"
     stroke-opacity="0"
     fill="#000000"
     fill-opacity="1"
     fill-rule="evenodd"
     stroke-linecap="round"
     stroke-linejoin="round"
     d="M317.2,895.7 C317.7,897 318.2,898.6 318.7,900.3 318.7,900.3 319.1,901.7 319.1,901.7 319.1,901.7 319.9,901.7 319.9,901.7 322.9,902 324.8,903.8 325.1,904.1 332.8,900.4 336.5,906.6 336.8,908.9 337.4,914.3 328.2,926.9 323.8,927.4 321.2,927.7 312.5,923.8 288.7,924.3 264.4,924.7 257.7,927.9 255.7,927.6 251.3,926.9 241.7,912.9 242.2,909 242.5,906.6 246.7,901.4 255.1,904.6 256.8,903.3 258.4,902.6 259.8,902.4 259.8,902.4 260.3,902.3 260.3,902.3 260.3,902.3 260.6,901 260.6,901 261.9,896.5 264.4,890.4 266.9,886.5 271.7,879.1 276.1,879.5 285.6,881.4 297.1,883.8 295.7,878.4 307.3,881.2 309.8,881.8 310.6,882.6 312.2,885.1 314.5,888.7 315.8,891.5 317.2,895.7 Z M334.8,909.5 C334.9,914 327,924.7 323.8,925.3 321.9,925.7 312.9,921.9 288.7,922.3 264.2,922.7 257.6,925.9 255.9,925.6 252.9,925 243.7,912 244.2,909.1 244.3,908.7 245.5,906.3 248.8,905.7 252.2,905.1 254,906.8 255.4,906.6 256.5,906.4 257.1,905.2 259.3,904.5 259.9,904.4 260.9,904.4 261.6,903.8 262.9,902.6 262,900.2 266.8,890.7 270.5,883.4 273.4,882.3 276.8,882.2 282.1,882.1 287.5,884.8 293.7,883.8 296,883.4 306.1,879.8 310,885.4 316,893.9 316.3,902 317.9,903.2 319,904.1 319.6,903.2 321.9,904.3 323.7,905.1 323.8,906 325,906.1 326.2,906.1 328,904.4 330.8,905 333.5,905.7 334.7,908.4 334.8,909.1 334.8,909.2 334.8,909.4 334.8,909.5 Z " />
  <path
     id="Path1"
     stroke-width="0"
     stroke="none"
     stroke-opacity="0"
     fill="#000000"
     fill-opacity="1"
     fill-rule="evenodd"
     stroke-linecap="round"
     stroke-linejoin="round"
     d="M329.9,954.1 C330,959.5 321.3,971.4 317.1,971.9 313.8,972.2 306.1,968.3 282,968.8 257.6,969.2 251.1,972.4 249,972.1 245.1,971.5 235.2,957.9 235.7,953.8 236,951.7 239.9,946.3 248.4,949.6 250,948.3 253.6,945.5 259.4,948.8 264.8,943.8 269.5,946.6 271.3,947.7 271.7,947.4 276.4,942.8 282.9,947.4 288.8,943.1 293.3,946.5 294.7,947.6 295.1,947.3 300.6,942.9 306.7,948.6 312.8,944.5 316.9,947.9 318.4,949.1 326.2,945.3 329.6,951.7 329.8,953.6 329.8,953.7 329.9,953.9 329.9,954.1 Z M327.9,954.3 C327.9,953.9 327.8,953.5 327.7,953.1 326.3,950.2 322.6,948.2 318.2,951.6 318.2,951.6 317.9,951.6 317.9,951.6 317.9,951.6 317.6,951.2 317.6,951.2 316.4,949.6 314.4,948.6 312.2,948.6 310.1,948.6 308.1,949.6 306.9,951.2 306.9,951.2 306.5,951.7 306.5,951.7 306.5,951.7 306.3,951.4 306.3,951.4 305.1,949.2 302.8,947.7 300.2,947.7 298,947.7 296.1,948.7 294.8,950.3 294.8,950.3 294.6,950.5 294.6,950.5 294.6,950.5 294.5,950.4 294.5,950.4 293.2,948.5 291.1,947.3 288.7,947.3 286.5,947.3 284.6,948.3 283.3,949.8 283.3,949.8 283,950.3 283,950.3 283,950.3 282.7,949.9 282.7,949.9 281.4,948.4 279.5,947.4 277.3,947.4 274.9,947.4 272.8,948.6 271.5,950.5 271.5,950.5 271.4,950.6 271.4,950.6 271.4,950.6 271.3,950.5 271.3,950.5 270,948.9 268.1,947.9 265.9,947.9 263.3,947.9 261,949.4 259.8,951.6 259.8,951.6 259.8,951.7 259.8,951.7 259.8,951.7 259.4,951.3 259.4,951.3 258.1,950 256.4,949.3 254.5,949.3 252.3,949.3 250.4,950.2 249.1,951.8 249.1,951.8 248.9,952.1 248.9,952.1 248.9,952.1 248.7,952 248.7,952 246.7,950.8 244.5,950.3 242.1,950.7 240.1,951 237.6,952.9 237.7,954.3 239.5,961 247.4,969.9 249.4,970.2 260,967.8 270.6,966.9 284.5,966.8 297.4,966.6 307.8,968.2 316.8,969.9 320.3,969.2 327.7,958.8 327.9,954.3 Z " />
  <path
     id="Path2"
     stroke-width="0"
     stroke="none"
     stroke-opacity="0"
     fill="#000000"
     fill-opacity="1"
     fill-rule="evenodd"
     stroke-linecap="round"
     stroke-linejoin="round"
     d="M377.5,892.2 C368.3,898.7 353.3,898 342.4,893.4 330.9,888.7 329.2,877.7 330,868.4 331.3,854.4 344.7,846.7 345.8,845.8 352.4,840.7 353.9,834.4 353.9,833.5 353.8,830.5 350.8,829.6 350,827.8 349.4,826.1 350.1,823.7 351.9,822.4 356.2,819.5 370,824.5 372.5,837.5 376.9,835.2 380.1,836.8 380.5,839.8 380.7,842.6 378,843.6 377.8,845.4 377.5,848.8 392.4,866.9 383.7,884.9 382.2,888 380.1,890.4 377.5,892.2 Z M352.4,827.4 C351.2,826.5 352.4,823.2 355.5,823.8 360.1,824.6 363.9,826.6 367.3,830.5 370,833.7 370.8,838.9 370.5,842.1 372,840.5 372.9,839.5 374.6,838.8 376.2,838.2 377.6,838.5 378.1,839.5 379,841.1 376.6,842.3 376.1,843.6 375.6,845.1 375.5,845.7 375.9,847.2 377.2,851.1 382.8,859.2 384,868.6 385.2,877.9 381.9,888.5 373.9,891.9 361.6,897 349.4,894.4 341.7,890.8 333.9,887.1 331.4,878.3 332.2,868.6 332.8,861.5 337.7,853.8 345.1,848.9 350.8,845.2 353.7,841.1 355.7,835.5 356.7,832.8 355.5,829.8 352.4,827.4 Z " />
  <path
     id="Path3"
     stroke-width="0"
     stroke="none"
     stroke-opacity="0"
     fill="#000000"
     fill-opacity="1"
     fill-rule="evenodd"
     stroke-linecap="round"
     stroke-linejoin="round"
     d="M301.4,847.9 C301.5,854.2 298.8,859.4 292.6,862.2 281.2,867.3 266.3,863.2 263.9,848.8 262.6,840.5 269,830 273.3,829.3 275,829.1 276.3,829.7 279.9,832.8 279.7,817.3 286.4,813.6 289.4,815.3 292.8,817.3 288.3,818.3 296.3,832 299.5,837.5 301.3,843 301.4,847.9 Z M272.3,859 C268.4,856.4 265.1,849.6 266.1,844.2 267.1,838.8 269.8,833.5 273.2,831.7 275.6,830.3 280.5,837.8 282.3,836.4 281.9,831.9 281.9,827 283.3,822.3 284.2,819.3 286.8,816.9 288.2,817.1 289.6,817.4 288.9,822.1 290.2,825.2 292.8,831.2 296.3,835.5 297.8,839.7 300.2,846.6 299.3,855.6 294.4,858.8 287.5,863.1 278.6,863.2 272.3,859 Z " />
  <path
     id="Path4"
     stroke-width="0"
     stroke="none"
     stroke-opacity="0"
     fill="#000000"
     fill-opacity="1"
     fill-rule="evenodd"
     stroke-linecap="round"
     stroke-linejoin="round"
     d="M396.3,917.2 C397,917.2 397.4,917.4 397.5,917.4 397.6,917.5 410.8,923 411,923.2 411.9,923.6 412.6,924.1 413.3,924.7 413.3,924.7 413.3,924.7 413.3,924.7 413.3,924.7 413.3,924.7 413.3,924.7 413.6,924.9 413.8,925.2 414.1,925.4 414.1,925.4 414.2,925.6 414.2,925.6 414.2,925.6 414.2,925.6 414.2,925.6 414.2,925.6 414.2,925.6 414.2,925.6 414.2,925.6 414.7,926.1 414.7,926.1 414.7,926.1 415,926.5 415,926.5 415,926.5 415,926.6 415,926.6 415,926.6 415.1,926.6 415.1,926.6 415.1,926.6 415.3,927 415.3,927 415.3,927 415.6,927.4 415.6,927.4 415.6,927.4 415.7,927.6 415.7,927.6 415.7,927.6 415.7,927.6 415.7,927.6 415.7,927.6 415.8,927.9 415.8,927.9 415.8,927.9 416.1,928.5 416.1,928.5 416.1,928.5 416.2,928.6 416.2,928.6 416.2,928.6 416.2,928.7 416.2,928.7 416.2,928.7 416.3,928.8 416.3,928.8 416.9,930.5 417.2,932.4 417,934.6 417,934.6 417,935.2 417,935.2 417,935.2 416.9,935.3 416.9,935.3 416.9,935.3 416.9,935.3 416.9,935.3 416.9,935.3 416.9,935.9 416.9,935.9 416.9,935.9 416.8,936.2 416.8,936.2 416.8,936.2 416.8,936.3 416.8,936.3 416.8,936.3 416.7,936.8 416.7,936.8 416.7,936.8 416.5,937.2 416.5,937.2 416.5,937.2 416.5,937.3 416.5,937.3 416.5,937.3 416.5,937.4 416.5,937.4 416.4,937.7 416.3,938 416.2,938.3 416.2,938.3 416.2,938.3 416.2,938.3 416.2,938.3 416.2,938.4 416.2,938.4 416.2,938.4 416,938.7 416,938.7 416,938.7 415.8,939.3 415.8,939.3 415.8,939.3 415.8,939.4 415.8,939.4 415.8,939.4 415.7,939.5 415.7,939.5 415.7,939.5 415.6,939.8 415.6,939.8 415.6,939.8 415.5,939.9 415.5,939.9 415.5,939.9 415.4,940.1 415.4,940.1 415.4,940.1 415.1,940.5 415.1,940.5 414.6,941.6 413.9,942.4 413.1,943.2 413.1,943.2 412.8,943.4 412.8,943.4 412.8,943.4 412.8,943.5 412.8,943.5 412.8,943.5 412.6,943.7 412.6,943.7 412.6,943.7 412.3,943.9 412.3,943.9 412.3,943.9 412.2,944 412.2,944 412.2,944 412,944.2 412,944.2 411.2,944.8 410.3,945.3 409.3,945.7 409.3,945.7 408.9,945.9 408.9,945.9 408.9,945.9 408.7,945.9 408.7,945.9 408.7,945.9 408.5,946 408.5,946 408.5,946 408.3,946 408.3,946 408.3,946 408.2,946 408.2,946 408.2,946 407.7,946.2 407.7,946.2 406.4,946.4 405.1,946.4 403.8,946 403.1,945.8 402.5,945.6 401.9,945.3 401.9,945.3 401.9,945.3 401.9,945.3 401.9,945.3 376.5,934.6 376.5,934.6 376.5,934.6 350.9,946.9 350.9,946.9 349.9,947.4 348.6,947.6 347.2,947.4 347.2,947.4 347.2,947.4 347.2,947.4 347.2,947.4 346.8,947.4 346.8,947.4 344.7,947.2 342.9,946.2 341.4,944.9 341.4,944.9 341.1,944.6 341.1,944.6 341.1,944.6 340.8,944.4 340.8,944.4 339.1,942.7 337.6,940.3 337,937.2 337,937.2 337,937 337,937 337,937 337,936.8 337,936.8 337,936.8 336.9,936.5 336.9,936.5 336.9,936.5 336.9,936.3 336.9,936.3 336.9,936.3 336.9,935.8 336.9,935.8 336.9,935.8 336.8,935.5 336.8,935.5 336.8,935.5 336.8,934.7 336.8,934.7 336.8,934.7 336.8,934.4 336.8,934.4 336.8,934.4 336.8,934.3 336.8,934.3 336.8,934.3 336.8,934.3 336.8,934.3 336.8,934.3 336.8,934.2 336.8,934.2 336.8,934.2 336.8,933.6 336.8,933.6 336.9,932.1 337.3,930.1 338.4,928.3 338.4,928.3 338.6,928 338.6,928 338.6,928 338.8,927.8 338.8,927.8 339.8,926.3 341.2,925.1 342.8,924.4 342.8,924.4 343.2,924.3 343.2,924.3 343.2,924.3 343.2,924.3 343.2,924.3 357.5,918.1 357.6,917.8 358.3,917.6 358.5,917.5 359.1,917.3 359.8,917.5 361.2,917.9 360.6,918.4 362.4,920.3 367.8,915.2 369.5,916.3 370.2,916.3 370.7,914.2 373.2,904.8 380.2,903.4 382.3,903 383.3,903.8 383.7,904.5 384.5,905.6 384.2,906.2 383.7,915 384,914.7 384.1,914.2 385.2,913.7 390.8,911.4 393.2,921 393.2,921.1 394.1,919.2 394,918 395.6,917.4 395.9,917.3 396.1,917.3 396.3,917.2 Z M354.5,933.6 C355.8,938.8 353.6,944 349.4,945.1 345.2,946.2 340.7,942.8 339.4,937.6 338,932.4 340.3,927.3 344.4,926.2 348.6,925.1 353.1,928.4 354.5,933.6 Z M414.5,936.6 C413,941.8 408.4,945.1 404.3,943.9 400.1,942.8 398,937.6 399.4,932.4 400.9,927.2 405.4,924 409.6,925.1 413.7,926.3 415.9,931.4 414.5,936.6 Z M396.8,935.1 C396.7,937.3 397.1,939.3 398,941.1 398,941.1 398.1,941.3 398.1,941.3 398.1,941.3 376.5,932.2 376.5,932.2 376.5,932.2 355.8,942.2 355.8,942.2 355.8,942.2 356,941.7 356,941.7 356.6,940.2 356.9,938.6 357,937 357,935.6 356.9,934.3 356.6,933.1 355.7,929.7 353.1,925.9 349.4,924.4 349.4,924.4 348.8,924.2 348.8,924.2 348.8,924.2 359.2,919.6 359.2,919.6 359.5,920.3 359.9,920.9 360.3,921.3 361.4,922.4 361.8,922.6 362.9,922.8 365.6,920 367.7,918.5 369.3,918.4 370.6,918.2 371.6,923 371.8,922 371.9,918.1 372.5,914.8 373.7,912.3 376.5,906.1 382.1,904.4 382,906 382,906 381.5,915.4 381.5,915.4 381.3,917.9 382,922.6 382.6,921.8 383.2,922.6 384.1,920.8 385.4,916.3 385.8,915.2 388.2,915.3 389.6,917.7 391.1,920.1 391.6,924.9 392.5,923.9 393.7,923.4 394.6,922.9 395.1,922.3 396,921.4 395.7,919 396.7,919.5 396.7,919.5 405.3,923.1 405.3,923.1 405.3,923.1 404.7,923.3 404.7,923.3 401,924.7 397.9,928.4 397,933 396.9,933.7 396.8,934.4 396.8,935.1 Z " />
  <path
     id="Path5"
     stroke-width="0"
     stroke="none"
     stroke-opacity="0"
     fill="#000000"
     fill-opacity="1"
     fill-rule="evenodd"
     stroke-linecap="round"
     stroke-linejoin="round"
     d="M208.9,995.4 C210.4,1001 211,1006.7 210.9,1009.5 210.9,1009.5 210.9,1010.2 210.9,1010.2 210.9,1010.2 211,1010.2 211,1010.2 214.9,1010.4 218.4,1012.8 220.9,1016.1 223.7,1019.7 223.7,1022.4 222,1023.4 220.8,1024.2 219.7,1023.6 219.1,1023.4 219,1023.4 214.1,1020 211.9,1022.5 210.3,1024.4 211.9,1033.5 209.9,1043.2 208.7,1049 206.4,1052.7 203.9,1054.8 201.8,1056.7 199.5,1057.4 197.7,1057.5 197.7,1057.5 197.6,1057.5 197.6,1057.5 197.6,1057.5 197.6,1057.5 197.6,1057.5 194.9,1057.7 191.2,1055.9 188.4,1053.5 181.1,1046.8 183,1030.1 181.4,1025.1 177.6,1026.4 177,1029.4 174.6,1028 170.7,1025.8 175.2,1014.5 183,1013.5 183,1013.5 183.2,1013.5 183.2,1013.5 183.2,1013.5 183.1,1013.1 183.1,1013.1 182.5,1008.5 184.1,994.2 188.5,986.6 189.8,984.5 192.9,979.8 197.9,980.4 203.5,981.1 207,988.1 208.9,995.4 Z M185.3,1042.7 C183.6,1034.4 184.8,1024.7 182.3,1023.4 180.1,1022.3 176.1,1026.5 175.6,1026.3 174.6,1025.9 175.1,1020.8 179.2,1017.4 182.3,1014.8 183.7,1016.1 184.8,1014.7 186.2,1012.8 183.4,1013.6 186.2,999.4 186.8,996.5 189.6,984.1 195.8,982.5 202.5,980.8 206,992.6 206.2,993.3 210.2,1005.7 208,1010.1 209.4,1011.6 210.7,1012.9 212.4,1011.3 216.5,1014.4 220.2,1017.2 221.7,1021.1 221,1021.7 220.4,1022.2 212.5,1016.4 209.8,1022.2 207.7,1026.7 211.4,1044.3 203.4,1052.6 196.7,1059.5 189.6,1052.1 188.3,1050.2 186.8,1048.1 185.9,1045.5 185.3,1042.7 Z " />
  <path
     id="Path6"
     stroke-width="0"
     stroke="none"
     stroke-opacity="0"
     fill="#000000"
     fill-opacity="1"
     fill-rule="evenodd"
     stroke-linecap="round"
     stroke-linejoin="round"
     d="M223.1,951.1 C223.1,952.1 223,952.7 222.9,952.9 222.2,954 217.2,954.2 214.3,960.4 212.1,965.2 213,968.3 210.5,968.6 207.7,969.1 208.4,965.9 203.5,960.7 198.9,955.8 197,957.4 195.8,956 194.3,954.3 195.7,936.9 200.7,928.2 202,926.1 205.1,921.4 210.1,922 220.2,923.2 223.3,944.6 223.1,951.1 Z M221.1,951.7 C221.1,951.7 220,952 220,952 214,954.1 211.6,960 210.3,965.9 210.3,965.9 210.2,966.5 210.2,966.5 210.2,966.5 209.7,965.6 209.7,965.6 206.6,960.2 202.4,955.6 197.7,954.6 197.7,954.6 197.4,954.6 197.4,954.6 197.4,954.6 197.4,954.5 197.4,954.5 197.4,937.7 202.7,924.1 209.3,924.1 215.4,924.1 220.5,936 221.1,951.4 221.1,951.4 221.1,951.7 221.1,951.7 Z " />
  <path
     id="Path7"
     stroke-width="0"
     stroke="none"
     stroke-opacity="0"
     fill="#000000"
     fill-opacity="1"
     fill-rule="evenodd"
     stroke-linecap="round"
     stroke-linejoin="round"
     d="M179.5,925.2 C179.5,925.2 179.5,925.7 179.5,925.7 179.3,928.2 178.8,929.9 177.9,929.8 176.7,929.7 176.8,928.6 177,925.7 177,925.7 177,925.5 177,925.5 177,925.5 176.7,925.6 176.7,925.6 174.5,925.8 172.3,925.8 170.5,925.7 170.3,925.7 170,925.6 169.6,925.6 169.6,925.6 168.3,925.3 168.3,925.3 168.3,925.3 168.3,926.3 168.3,926.3 168.6,928.9 168.8,929.6 167.6,929.8 166.6,929.9 166,928.2 165.8,925.5 165.8,925.5 165.8,924.8 165.8,924.8 165.8,924.8 164.3,924.4 164.3,924.4 161.7,923.7 159.5,922.6 160.1,921.4 160.8,920 161.9,921.4 165.5,922.5 165.5,922.5 165.7,922.6 165.7,922.6 165.7,922.6 165.8,921.4 165.8,921.4 165.8,920.4 165.8,919.3 165.9,918.2 165.9,918.2 166.1,915.3 166.1,915.3 166.1,915.3 164.6,914.9 164.6,914.9 162.1,914.2 160.1,913.2 160.6,912 161.2,910.5 162.3,911.9 165.8,913 165.8,913 166.4,913.1 166.4,913.1 166.4,913.1 166.6,911 166.6,911 166.7,910.4 166.9,909 167.2,907.2 167.2,907.2 167.3,906.3 167.3,906.3 167.3,906.3 166.3,906 166.3,906 164,905.3 162.3,904.3 162.9,903.2 163.5,901.9 164.5,903 167.2,903.9 167.2,903.9 167.7,904.1 167.7,904.1 167.7,904.1 168.4,901 168.4,901 169.3,896.7 170.6,892.7 171.9,893.1 172.4,893.2 172.6,893.4 172.7,893.9 172.7,893.9 172.7,893.9 172.7,893.9 172.7,893.9 172.8,893.6 172.8,893.6 172.9,893.3 173.1,893.2 173.4,893.1 175,892.6 176.4,897.8 177.5,903 177.5,903 177.7,904.3 177.7,904.3 177.7,904.3 177.8,904.3 177.8,904.3 180.9,903.5 182,902.2 182.6,903.7 183,904.9 181.2,905.8 178.7,906.4 178.7,906.4 178.1,906.5 178.1,906.5 178.1,906.5 178.5,908.8 178.5,908.8 178.6,909.6 178.7,910.4 178.8,911 178.8,911 179.1,913.4 179.1,913.4 179.1,913.4 179.2,913.4 179.2,913.4 183,912.4 184.3,910.9 184.9,912.5 185.4,913.8 183.2,914.7 180.4,915.4 180.4,915.4 179.3,915.6 179.3,915.6 179.3,915.6 179.4,916.8 179.4,916.8 179.5,918.9 179.6,921 179.6,923 179.6,923 179.6,923 179.6,923 179.6,923 179.9,923 179.9,923 183.9,921.9 184.7,920.2 185.4,922 185.9,923.2 183.6,924.3 180.4,925 180.4,925 179.5,925.2 179.5,925.2 Z M168.1,923.2 C168.1,923.2 169,923.3 169,923.3 170,923.5 171,923.6 172.2,923.6 173.5,923.7 174.7,923.7 175.8,923.6 175.8,923.6 177.1,923.5 177.1,923.5 177.1,923.5 177.2,923.2 177.2,923.2 177.2,921.3 177.3,919 177.1,916.1 177.1,916.1 177.1,915.9 177.1,915.9 177.1,915.9 175.9,916.1 175.9,916.1 174.5,916.2 173.1,916.2 172.1,916.2 171.2,916.2 170,916 168.6,915.8 168.6,915.8 168.3,915.7 168.3,915.7 168.3,915.7 168.2,916.5 168.2,916.5 168.1,918.9 168.1,920.8 168.1,922.4 168.1,922.4 168.1,923.2 168.1,923.2 Z M176.9,913.8 C176.9,913.8 176.9,913.8 176.9,913.8 176.9,913 176.8,912.1 176.7,911.3 176.5,909.8 176.3,908.4 176,907 176,907 175.9,906.8 175.9,906.8 175.9,906.8 174.7,906.9 174.7,906.9 173.3,907 172,907 171,906.9 171,906.9 169.5,906.7 169.5,906.7 169.5,906.7 169.4,906.8 169.4,906.8 169.2,908.2 168.9,909.7 168.7,911.3 168.7,911.3 168.5,913.6 168.5,913.6 168.5,913.6 169.2,913.8 169.2,913.8 170.1,913.9 171.1,914 172.2,914 174,914.1 175.5,914 176.8,913.9 176.8,913.9 176.9,913.8 176.9,913.8 Z M175.5,904.7 C175.5,904.7 175.1,903 175.1,903 174.5,900.4 173.8,898.2 173.4,896.9 173.2,895.9 172.8,895 172.7,894.4 172.7,894.4 172.7,894.3 172.7,894.3 172.7,894.3 172.7,894.3 172.7,894.3 172.6,895.8 171.4,898.6 170.2,903.1 170.2,903.1 169.9,904.6 169.9,904.6 169.9,904.6 169.9,904.6 169.9,904.6 170.7,904.7 171.4,904.8 172.3,904.8 173.2,904.9 174.1,904.8 174.8,904.8 174.8,904.8 175.5,904.7 175.5,904.7 Z " />
  <path
     id="Path8"
     stroke-width="0"
     stroke="none"
     stroke-opacity="0"
     fill="#000000"
     fill-opacity="1"
     fill-rule="evenodd"
     stroke-linecap="round"
     stroke-linejoin="round"
     d="M172.7,954.8 C172.6,958.4 170.5,963.6 166.8,974.2 166.8,974.2 155.5,1007.4 155.5,1007.4 153.7,1012.6 151.8,1018.6 144.2,1018.9 139,1019.1 122.3,1012.8 117.8,1010.6 113.5,1010.9 113.7,1010.3 112.8,1010.3 112.5,1010.3 102.5,1010.9 100.4,1010.6 99.5,1011 97.4,1012.2 94.3,1013.3 93.3,1013.6 82.7,1017 81.3,1017.5 80.8,1017.7 68.5,1023.4 64.1,1010.1 64.1,1010.1 55.6,984.7 55.6,984.7 55.6,984.7 48.7,964.1 48.7,964.1 47,958.7 44.1,952.9 48.7,947.6 50.7,945.3 53.2,943.8 70.9,938.4 74.4,934.8 77.4,932.8 84.8,932.9 89.8,929.9 93.6,929.2 99.6,930.4 102.7,928.9 109,925.1 119.2,930 124.5,929.2 128,929.6 133.1,932.8 138.2,932.6 142.7,933.1 147.9,939.4 165.3,944.6 164.8,944.4 164.9,944.5 171.3,946.7 172.5,952.3 172.6,953.3 172.7,953.8 172.7,954.3 172.7,954.8 Z M87.1,934.2 C90.8,932.2 94.6,931.5 100,932.8 106.3,929.3 111.9,928.6 118.8,932.4 124.9,931.2 128.5,932.4 132.4,935.1 137.3,934.8 142,935.3 146.5,941.4 163.6,946.4 164,946.6 164.2,946.6 168,948 169.4,950.7 169.8,951.8 171.3,955.4 170.5,956.6 164.7,973.5 164.7,973.5 153.3,1006.7 153.3,1006.7 152.6,1008.7 150.8,1019.5 139.4,1015.9 130.8,1013.2 125.4,1011.5 123.3,1010.7 121.8,1010.1 119,1008.6 118.2,1008.2 114.5,1008.8 113.7,1008.1 113.1,1008 111.4,1008 111.1,1009.1 106.2,1008 104.4,1008.5 103.5,1008.9 100.1,1008.3 98.6,1009 96.5,1010.1 93.5,1011.1 93.4,1011.2 80.6,1015.4 80.5,1015.4 79.4,1015.8 69.9,1020.3 66.2,1009.3 66.2,1009.3 57.7,984 57.7,984 57.7,984 50.9,963.3 50.9,963.3 49.1,957.8 47.2,954.2 49.7,950.1 51.4,947.2 54.5,945.6 72.1,940.4 76.1,935.9 79.8,934.9 85.4,935.2 86,934.8 86.5,934.5 87.1,934.2 Z " />
  <path
     id="Path9"
     stroke-width="0"
     stroke="none"
     stroke-opacity="0"
     fill="#000000"
     fill-opacity="1"
     fill-rule="evenodd"
     stroke-linecap="round"
     stroke-linejoin="round"
     d="M104.8,900.9 C102.7,901.9 101.4,902.3 97.9,900.9 96.4,901.7 95.1,902.7 91.5,901.1 90.3,902.1 85.4,904.2 83.7,904.8 81,905.7 71,909 70.8,909 67.6,910.1 67.2,910.3 66,909.8 64.4,909.2 64.1,908 62.8,904 62.8,904 55.2,881.2 55.2,881.2 53.7,876.9 48.9,862.1 48.3,860.6 46.2,854 46,853.8 46.4,852.6 46.7,851.7 45.9,850.6 67.6,844.3 69.5,841.5 72.1,838.9 79.2,840.1 80,839.5 84.7,834.6 92.8,838.1 101.7,831.6 107.6,835.8 110,837.6 117.8,834.6 121.7,839.2 122.8,840.2 130.3,838.4 133.2,841.9 135,845.4 135.5,845.5 134.9,845.2 136.9,845.8 137,845.8 154.5,851 154.6,851.1 156.3,851.8 156.7,853 156.8,853.4 157,854.3 157.1,854.1 153.2,865.6 153.2,865.6 140,904 140,904 139.1,906.7 138.6,909.8 135.9,910.1 135.2,910.2 135.2,910.2 133.1,909.5 133,909.5 117.7,904.5 117.4,904.4 116.6,904.1 111.7,901.7 110.9,901.1 109.3,901.8 108,902.4 104.8,900.9 Z M81.6,889.7 C81.6,889.7 72.9,892.7 72.9,892.7 72.2,892.9 71.4,892.6 71.1,891.8 71.1,891.8 71.1,891.7 71.1,891.7 70.8,891 71.2,890.2 72,889.9 72,889.9 80.7,886.9 80.7,886.9 80.7,886.9 79.5,883.2 79.5,883.2 79.5,883.2 70.7,886.3 70.7,886.3 69.9,886.6 69.1,886.2 68.9,885.5 68.9,885.5 68.8,885.4 68.8,885.4 68.6,884.6 69,883.8 69.7,883.6 69.7,883.6 78.6,880.5 78.6,880.5 78.6,880.5 77.4,876.9 77.4,876.9 77.4,876.9 77.3,877 77.3,877 77.3,877 68.3,880.1 68.3,880.1 67.5,880.4 66.7,880 66.5,879.2 66.5,879.2 66.4,879.2 66.4,879.2 66.2,878.4 66.6,877.6 67.3,877.4 67.3,877.4 76.3,874.2 76.3,874.2 76.3,874.2 76.5,874.2 76.5,874.2 76.5,874.2 73.5,864.9 73.5,864.9 73.5,864.9 64.4,868 64.4,868 63.7,868.3 62.9,867.9 62.6,867.1 62.6,867.1 62.6,867 62.6,867 62.4,866.3 62.7,865.5 63.5,865.2 63.5,865.2 72.5,862.1 72.5,862.1 72.5,862.1 72.5,862.1 72.5,862.1 72.5,862.1 71.3,858.4 71.3,858.4 71.3,858.4 71.3,858.5 71.3,858.5 71.1,858.6 71,858.7 70.8,858.8 70.8,858.8 61.8,861.9 61.8,861.9 61,862.2 60.2,861.8 60,861.1 60,861.1 59.9,861 59.9,861 59.7,860.2 60.1,859.4 60.8,859.2 60.8,859.2 69.8,856 69.8,856 70,856 70.2,855.9 70.4,856 70.4,856 70.5,856 70.5,856 70.5,856 67.4,846.6 67.4,846.6 67.4,846.6 66.9,846.8 66.9,846.8 65.4,847.2 62.6,848.2 56.8,850.1 48.7,852.7 48.5,852.8 48.4,853.5 48.3,853.7 50.8,861.4 57.2,880.6 65.4,905.3 66.1,907.4 66.5,907.6 66.7,907.8 66.9,907.9 67.1,907.9 67.4,907.9 69.7,907.2 83,902.8 83.9,902.5 84.5,902.3 85,902.1 85,902.1 85.7,901.8 85.7,901.8 85.7,901.8 81.6,889.7 81.6,889.7 Z M111.9,899.1 C111.9,899.1 112.2,899.4 112.2,899.4 112.4,899.6 112.9,899.9 113.3,900.1 113.9,900.4 114.1,900.5 114.8,900.5 114.8,900.5 115.6,900.5 115.6,900.5 115.6,900.5 133.6,847.5 133.6,847.5 133.6,847.5 133.4,847 133.4,847 132.9,845.8 132.2,844.7 131.3,843.8 129.8,842.3 128.4,841.8 126,841.9 124.8,841.9 123.5,842.1 123.3,842.3 123.2,842.4 123.1,842.9 117.4,871.5 117.4,871.5 111.9,899.1 111.9,899.1 Z M154.7,853.9 C154.6,853.7 154.3,853.3 154,853.1 153.9,853.1 139.9,848.9 136.3,847.8 136.3,847.8 135.8,847.7 135.8,847.7 135.8,847.7 117.3,902.1 117.3,902.1 117.3,902.1 118.1,902.4 118.1,902.4 120.6,903.2 131.9,906.9 133.8,907.5 134.6,907.8 135.4,908 135.5,908 135.7,908 136.3,907.7 136.5,907.5 136.6,907.3 137.2,905.4 138,903.3 138.7,901.1 139.9,897.6 140.7,895.4 142.2,891 142.5,890.2 145.6,881.2 147.5,875.4 149.3,870.2 151.1,864.9 154.3,855.6 154.8,854.2 154.7,853.9 Z M96.6,899.2 C96.6,899 92.4,841.4 92.3,840.4 92.2,840.1 91.5,839.8 90.2,839.4 89.3,839.1 89,839.1 87.4,839.1 85.8,839 85.5,839.1 84.7,839.3 83.4,839.7 82,840.5 81,841.4 80.7,841.6 80.6,841.7 80.7,841.8 80.7,841.9 80.7,841.9 80.7,842 80.8,842.1 81.4,845 82,848.4 82.7,851.7 83.6,856.5 84.1,859 85.2,864.2 86,868.3 88.2,879.7 91.5,896.2 92,898.7 92,898.9 92.1,899.1 92.9,899.5 93.7,899.7 94,899.8 94.6,899.8 94.9,899.8 95.6,899.7 96.5,899.4 96.6,899.2 Z M108.7,839.5 C108.7,839.3 108.5,839.2 108,838.8 106,837.4 103.3,836.6 101.1,836.8 99.1,837 96.7,837.9 95,839.2 95,839.2 94.1,839.8 94.1,839.8 94.1,839.8 94.2,840.3 94.2,840.3 94.2,840.5 95.2,853.8 96.4,869.8 97.6,885.7 98.6,898.8 98.6,898.9 98.7,898.9 99.2,899.1 99.7,899.3 100.5,899.6 100.8,899.6 101.6,899.6 102.4,899.6 102.8,899.5 103.1,899.4 103.1,899.4 103.6,899.1 103.6,899.1 103.6,899.1 104.4,889 104.4,889 104.9,883.4 105.5,877 105.7,874.8 105.9,872.5 106.3,867.7 106.6,864.1 106.9,860.5 107.4,854.8 107.7,851.5 107.9,848.1 108.3,844.2 108.4,842.7 108.5,841.3 108.6,839.9 108.7,839.7 108.7,839.6 108.7,839.5 108.7,839.5 Z M90.1,899.5 C90.1,899.2 90,898.5 89.5,895.9 89.1,894 88.4,890.6 88,888.4 87.5,886.2 86.8,882.4 86.3,879.9 85.8,877.4 84.7,871.9 83.9,867.8 83.1,863.6 82.4,860 82.3,859.7 82.3,859.5 81.5,855.6 80.6,851.1 79.7,846.7 79,842.8 78.9,842.6 78.9,842.2 78.8,842.2 78.1,842.1 77.1,841.9 74.9,841.9 74,842.1 73.3,842.3 72.6,842.5 71.9,842.9 71.1,843.4 70.4,844 69.8,844.8 69.8,844.8 69.3,845.6 69.3,845.6 69.3,845.6 87.5,900.5 87.5,900.5 87.5,900.5 87.6,900.5 87.6,900.5 88.5,900.5 89.6,900.1 90,899.7 90,899.6 90,899.6 90.1,899.5 Z M105.6,898.6 C105.6,898.9 105.9,899.1 106.7,899.4 107.2,899.6 107.5,899.6 108.3,899.6 109.3,899.6 109.8,899.4 109.9,899.1 110,898.9 115.1,873.3 119.2,852.4 119.2,852.4 121.4,841.8 121.4,841.8 121.4,841.8 120.6,841 120.6,841 119,839.5 117.4,838.9 115.2,838.8 114.2,838.8 113.6,838.8 112.9,838.9 111.9,839.1 110.9,839.5 110.7,839.7 110.6,839.8 110.5,840.8 110.4,842 110.3,843.2 110,847.1 109.6,850.8 109.3,854.4 108.9,858.9 108.8,860.7 108.6,862.5 108.1,868.5 107.7,874 107.2,879.5 106.5,887.3 106.2,891.3 105.8,895.2 105.6,898.5 105.6,898.6 Z " />
  <path
     id="Path10"
     stroke-width="0"
     stroke="none"
     stroke-opacity="0"
     fill="#000000"
     fill-opacity="1"
     fill-rule="evenodd"
     stroke-linecap="round"
     stroke-linejoin="round"
     d="M223.6,879.6 C223.8,892.4 226.7,901.2 216,903.3 212.1,904 204.7,903.8 201.5,900.5 198.8,897.9 199.5,894.1 199.2,883.8 190.3,880.1 181.2,877.8 180.6,859.7 180.3,848.4 180.8,843.6 185.9,841.4 188.3,840.4 195.6,839.8 197.4,847.5 199,854.6 195.6,861 199.2,865.2 199.2,865.2 199.3,865.1 199.3,863.5 199.3,863.5 199.3,845 199.3,845 199.3,830.4 197.3,820.4 206.4,816 212.9,812.9 220.5,817 222.8,821.6 225.4,826.8 223,841.8 224.1,851.6 227.8,846 223.6,840.2 227.1,835.3 231.2,829.4 241.4,829.9 242.6,840.3 245.5,866 226.5,869.3 224.2,870.1 223.7,873.5 223.6,876.6 223.6,879.6 Z M201.4,827.6 C201.8,823.6 202.9,821 205.8,818.9 210,815.8 214.5,817.2 217,818.7 223.2,822.4 221.8,826.4 221.8,837.3 221.9,851.6 221.4,853.1 223.4,853.7 226.2,854.6 228.3,849.9 227.8,842.8 227.7,840 227.4,837.9 229.4,835.8 230.2,835 232.9,832.5 236.7,834.2 239.5,835.6 241.2,837.7 240.5,848 239.2,866.9 224,866.8 222.5,868.7 220.7,871 223.1,894.3 221,898.1 218.4,902.5 208,902.1 204.2,900 202.3,898.8 201.5,897.8 201.4,891.8 201.2,883.9 201.6,883.4 200.9,882.5 199.7,880.7 188.3,880.2 184.1,869.1 183.4,867.2 182.5,863.5 182.8,852.8 183,847.3 183.4,844.8 186.7,843.4 189.4,842.2 193.7,843.1 195,846.9 196.8,852.3 194,861.3 196.5,865.2 197.2,866.4 198.3,867.8 199.8,867.3 201.7,866.7 201.4,865.3 201.4,860.6 201.4,860.4 201.4,846.4 201.4,845 201.4,837.1 201,831.6 201.4,827.6 Z " />
  <path
     id="Path11"
     stroke-width="0"
     stroke="none"
     stroke-opacity="0"
     fill="#000000"
     fill-opacity="1"
     fill-rule="evenodd"
     stroke-linecap="round"
     stroke-linejoin="round"
     d="M263.5,1036 C261.4,1037.9 259.2,1038.6 257.3,1038.7 257.3,1038.7 257.2,1038.7 257.2,1038.7 257.2,1038.7 257.2,1038.7 257.2,1038.7 254.5,1039 250.8,1037.1 248.1,1034.7 240.8,1028 242.6,1011.3 241,1006.4 237.3,1007.7 236.7,1010.6 234.3,1009.2 229.6,1006.6 236.8,991.2 247.4,995.3 250.6,996.6 253.7,999.3 256.3,1002.8 256.3,1002.8 256.6,1003.3 256.6,1003.3 256.6,1003.3 257.1,1002.1 257.1,1002.1 258.1,999.6 259.5,997.3 261.3,995.5 268.4,988.6 276.1,991.4 280.6,997.3 283.4,1000.9 283.3,1003.6 281.6,1004.7 280.5,1005.4 279.3,1004.8 278.7,1004.6 278.7,1004.6 273.7,1001.2 271.6,1003.7 269.9,1005.6 271.6,1014.8 269.6,1024.5 268.4,1030.2 266,1033.9 263.5,1036 Z M263.9,1032.7 C263.7,1033 263.4,1033.3 263.2,1033.6 262.6,1034.2 261.9,1034.8 261.1,1035.2 261.1,1035.2 260.9,1035.3 260.9,1035.3 260.9,1035.3 261,1035.1 261,1035.1 262.4,1032 263.4,1027.1 263.4,1023 263.5,1017.8 261.6,1011.8 258.7,1006.6 258.7,1006.6 258.2,1005.7 258.2,1005.7 258.2,1005.7 258.4,1005.1 258.4,1005.1 260.1,999.4 263.3,994.5 270.1,993.7 275.3,993 281.1,1000.3 280.6,1002.6 280.4,1003.6 278.3,1001.5 275.7,1000.8 273.7,1000.3 271.1,1001.1 270.1,1002.1 266.8,1005.2 271,1023.2 263.9,1032.7 Z M235.3,1007.2 C234.2,1001.3 240.5,996.4 244.1,996.7 250.8,997.4 256.8,1005.8 259.8,1013.9 262.6,1021.5 261,1031.5 258.1,1036 256.6,1038.2 249,1034 247.4,1030.4 242.1,1018.1 245.5,1006.3 242.1,1004.4 239.2,1002.9 235.3,1008.4 235.3,1007.2 Z " />
</svg>
